solid Untitled-5576bf00
facet normal 0.0 0.0 -1.0
  outer loop
    vertex 60.0 7.999999999999999 0.0
    vertex 0.0 0.0 0.0
    vertex 0.0 7.999999999999999 0.0
  endloop
endfacet
facet normal 0.0 0.0 -1.0
  outer loop
    vertex 0.0 0.0 0.0
    vertex 60.0 7.999999999999999 0.0
    vertex 60.0 0.0 0.0
  endloop
endfacet
facet normal -1.0 0.0 0.0
  outer loop
    vertex 0.0 7.999999999999999 1.5
    vertex 0.0 0.0 0.0
    vertex 0.0 0.0 1.5
  endloop
endfacet
facet normal -1.0 0.0 0.0
  outer loop
    vertex 0.0 0.0 0.0
    vertex 0.0 7.999999999999999 1.5
    vertex 0.0 7.999999999999999 0.0
  endloop
endfacet
facet normal -0.0 -1.0 -0.0
  outer loop
    vertex 60.0 0.0 1.5
    vertex 0.0 0.0 0.0
    vertex 60.0 0.0 0.0
  endloop
endfacet
facet normal -0.0 -1.0 -0.0
  outer loop
    vertex 0.0 0.0 0.0
    vertex 60.0 0.0 1.5
    vertex 0.0 0.0 1.5
  endloop
endfacet
facet normal 1.0 0.0 0.0
  outer loop
    vertex 60.0 7.999999999999999 0.0
    vertex 60.0 0.0 1.5
    vertex 60.0 0.0 0.0
  endloop
endfacet
facet normal 1.0 0.0 0.0
  outer loop
    vertex 60.0 0.0 1.5
    vertex 60.0 7.999999999999999 0.0
    vertex 60.0 7.999999999999999 1.5
  endloop
endfacet
facet normal 0.0 1.0 0.0
  outer loop
    vertex 0.0 7.999999999999999 1.5
    vertex 60.0 7.999999999999999 0.0
    vertex 0.0 7.999999999999999 0.0
  endloop
endfacet
facet normal 0.0 1.0 0.0
  outer loop
    vertex 60.0 7.999999999999999 0.0
    vertex 0.0 7.999999999999999 1.5
    vertex 60.0 7.999999999999999 1.5
  endloop
endfacet
facet normal 0.0 0.0 1.0
  outer loop
    vertex 60.0 0.0 1.5
    vertex 0.0 7.999999999999999 1.5
    vertex 0.0 0.0 1.5
  endloop
endfacet
facet normal 0.0 0.0 1.0
  outer loop
    vertex 0.0 7.999999999999999 1.5
    vertex 60.0 0.0 1.5
    vertex 60.0 7.999999999999999 1.5
  endloop
endfacet
endsolid Untitled-5576bf00
