solid Untitled-5576bea5
facet normal 0.0 0.0 -1.0
  outer loop
    vertex 65.0 9.0 0.0
    vertex 0.0 0.0 0.0
    vertex 0.0 9.0 0.0
  endloop
endfacet
facet normal 0.0 0.0 -1.0
  outer loop
    vertex 0.0 0.0 0.0
    vertex 65.0 9.0 0.0
    vertex 65.0 0.0 0.0
  endloop
endfacet
facet normal -0.0 -0.0 1.0
  outer loop
    vertex 65.0 0.0 1.5
    vertex 0.0 9.0 1.5
    vertex 0.0 0.0 1.5
  endloop
endfacet
facet normal -0.0 -0.0 1.0
  outer loop
    vertex 0.0 9.0 1.5
    vertex 65.0 0.0 1.5
    vertex 65.0 9.0 1.5
  endloop
endfacet
facet normal -1.0 0.0 0.0
  outer loop
    vertex 0.0 9.0 1.5
    vertex 0.0 0.0 0.0
    vertex 0.0 0.0 1.5
  endloop
endfacet
facet normal -1.0 0.0 0.0
  outer loop
    vertex 0.0 0.0 0.0
    vertex 0.0 9.0 1.5
    vertex 0.0 9.0 0.0
  endloop
endfacet
facet normal -0.0 1.0 0.0
  outer loop
    vertex 0.0 9.0 1.5
    vertex 65.0 9.0 0.0
    vertex 0.0 9.0 0.0
  endloop
endfacet
facet normal -0.0 1.0 0.0
  outer loop
    vertex 65.0 9.0 0.0
    vertex 0.0 9.0 1.5
    vertex 65.0 9.0 1.5
  endloop
endfacet
facet normal 1.0 0.0 0.0
  outer loop
    vertex 65.0 9.0 0.0
    vertex 65.0 0.0 1.5
    vertex 65.0 0.0 0.0
  endloop
endfacet
facet normal 1.0 0.0 0.0
  outer loop
    vertex 65.0 0.0 1.5
    vertex 65.0 9.0 0.0
    vertex 65.0 9.0 1.5
  endloop
endfacet
facet normal -0.0 -1.0 -0.0
  outer loop
    vertex 65.0 0.0 1.5
    vertex 0.0 0.0 0.0
    vertex 65.0 0.0 0.0
  endloop
endfacet
facet normal -0.0 -1.0 -0.0
  outer loop
    vertex 0.0 0.0 0.0
    vertex 65.0 0.0 1.5
    vertex 0.0 0.0 1.5
  endloop
endfacet
endsolid Untitled-5576bea5
