solid LED_mount
facet normal 0.0 0.0 -1.0
  outer loop
    vertex 60.0 8.6 0.0
    vertex 0.0 0.0 0.0
    vertex 0.0 8.6 0.0
  endloop
endfacet
facet normal 0.0 0.0 -1.0
  outer loop
    vertex 0.0 0.0 0.0
    vertex 60.0 8.6 0.0
    vertex 60.0 0.0 0.0
  endloop
endfacet
facet normal 0.0 0.0 1.0
  outer loop
    vertex 60.0 0.0 1.5
    vertex 0.0 8.6 1.5
    vertex 0.0 0.0 1.5
  endloop
endfacet
facet normal 0.0 0.0 1.0
  outer loop
    vertex 0.0 8.6 1.5
    vertex 60.0 0.0 1.5
    vertex 60.0 8.6 1.5
  endloop
endfacet
facet normal -1.0 0.0 0.0
  outer loop
    vertex 0.0 8.6 1.5
    vertex 0.0 0.0 0.0
    vertex 0.0 0.0 1.5
  endloop
endfacet
facet normal -1.0 0.0 0.0
  outer loop
    vertex 0.0 0.0 0.0
    vertex 0.0 8.6 1.5
    vertex 0.0 8.6 0.0
  endloop
endfacet
facet normal -0.0 -1.0 -0.0
  outer loop
    vertex 60.0 0.0 1.5
    vertex 0.0 0.0 0.0
    vertex 60.0 0.0 0.0
  endloop
endfacet
facet normal -0.0 -1.0 -0.0
  outer loop
    vertex 0.0 0.0 0.0
    vertex 60.0 0.0 1.5
    vertex 0.0 0.0 1.5
  endloop
endfacet
facet normal 0.0 1.0 0.0
  outer loop
    vertex 0.0 8.6 1.5
    vertex 60.0 8.6 0.0
    vertex 0.0 8.6 0.0
  endloop
endfacet
facet normal 0.0 1.0 0.0
  outer loop
    vertex 60.0 8.6 0.0
    vertex 0.0 8.6 1.5
    vertex 60.0 8.6 1.5
  endloop
endfacet
facet normal 1.0 0.0 0.0
  outer loop
    vertex 60.0 8.6 0.0
    vertex 60.0 0.0 1.5
    vertex 60.0 0.0 0.0
  endloop
endfacet
facet normal 1.0 0.0 0.0
  outer loop
    vertex 60.0 0.0 1.5
    vertex 60.0 8.6 0.0
    vertex 60.0 8.6 1.5
  endloop
endfacet
facet normal 0.0 -1.0 5.639932965095794e-16
  outer loop
    vertex 60.0 7.400000000000003 5.000000000000001
    vertex 3.3839597790574766e-14 7.4 0.0
    vertex 60.0 7.4 0.0
  endloop
endfacet
facet normal 0.0 -1.0 5.639932965095794e-16
  outer loop
    vertex 3.3839597790574766e-14 7.4 0.0
    vertex 60.0 7.400000000000003 5.000000000000001
    vertex 3.3839597790574766e-14 7.400000000000003 5.000000000000001
  endloop
endfacet
facet normal 0.0 0.0 -1.0
  outer loop
    vertex 60.0 8.6 0.0
    vertex 3.3839597790574766e-14 7.4 0.0
    vertex 3.3839597790574766e-14 8.6 0.0
  endloop
endfacet
facet normal 0.0 0.0 -1.0
  outer loop
    vertex 3.3839597790574766e-14 7.4 0.0
    vertex 60.0 8.6 0.0
    vertex 60.0 7.4 0.0
  endloop
endfacet
facet normal 0.0 0.0 1.0
  outer loop
    vertex 60.0 7.4 8.0
    vertex 3.3839597790574766e-14 8.6 8.0
    vertex 3.3839597790574766e-14 7.4 8.0
  endloop
endfacet
facet normal 0.0 0.0 1.0
  outer loop
    vertex 3.3839597790574766e-14 8.6 8.0
    vertex 60.0 7.4 8.0
    vertex 60.0 8.6 8.0
  endloop
endfacet
facet normal 0.0 -1.0 0.0
  outer loop
    vertex 60.0 8.6 8.0
    vertex 3.3839597790574766e-14 8.6 0.0
    vertex 60.0 8.6 0.0
  endloop
endfacet
facet normal 0.0 -1.0 0.0
  outer loop
    vertex 3.3839597790574766e-14 8.6 0.0
    vertex 60.0 8.6 8.0
    vertex 3.3839597790574766e-14 8.6 8.0
  endloop
endfacet
facet normal 1.0 0.0 0.0
  outer loop
    vertex 60.0 8.6 0.0
    vertex 60.0 7.400000000000003 5.000000000000001
    vertex 60.0 7.4 0.0
  endloop
endfacet
facet normal 1.0 0.0 0.0
  outer loop
    vertex 60.0 7.400000000000003 5.000000000000001
    vertex 60.0 8.6 8.0
    vertex 60.0 7.4 8.0
  endloop
endfacet
facet normal 1.0 0.0 0.0
  outer loop
    vertex 60.0 8.6 8.0
    vertex 60.0 7.400000000000003 5.000000000000001
    vertex 60.0 8.6 0.0
  endloop
endfacet
facet normal -1.0 0.0 0.0
  outer loop
    vertex 3.3839597790574766e-14 8.6 8.0
    vertex 3.3839597790574766e-14 7.400000000000003 5.000000000000001
    vertex 3.3839597790574766e-14 7.4 8.0
  endloop
endfacet
facet normal -1.0 0.0 0.0
  outer loop
    vertex 3.3839597790574766e-14 7.400000000000003 5.000000000000001
    vertex 3.3839597790574766e-14 8.6 0.0
    vertex 3.3839597790574766e-14 7.4 0.0
  endloop
endfacet
facet normal -1.0 0.0 0.0
  outer loop
    vertex 3.3839597790574766e-14 8.6 0.0
    vertex 3.3839597790574766e-14 7.400000000000003 5.000000000000001
    vertex 3.3839597790574766e-14 8.6 8.0
  endloop
endfacet
facet normal 1.0 0.0 0.0
  outer loop
    vertex 60.0 7.0113589511160335 6.238640755465532
    vertex 60.0 7.0113589511160335 6.7613592445344715
    vertex 60.0 7.000000000000001 6.500000000000001
  endloop
endfacet
facet normal 1.0 0.0 0.0
  outer loop
    vertex 60.0 7.0113589511160335 6.7613592445344715
    vertex 60.0 7.0113589511160335 6.238640755465532
    vertex 60.0 7.0453501442015805 5.979252476496133
  endloop
endfacet
facet normal 1.0 0.0 0.0
  outer loop
    vertex 60.0 7.0113589511160335 6.7613592445344715
    vertex 60.0 7.0453501442015805 5.979252476496133
    vertex 60.0 7.0453501442015805 7.0207475235038705
  endloop
endfacet
facet normal 1.0 0.0 0.0
  outer loop
    vertex 60.0 7.0453501442015805 7.0207475235038705
    vertex 60.0 7.0453501442015805 5.979252476496133
    vertex 60.0 7.101717244451247 5.723791265187
  endloop
endfacet
facet normal 1.0 0.0 0.0
  outer loop
    vertex 60.0 7.0453501442015805 7.0207475235038705
    vertex 60.0 7.101717244451247 5.723791265187
    vertex 60.0 7.101717244451247 7.276208734813002
  endloop
endfacet
facet normal 1.0 0.0 0.0
  outer loop
    vertex 60.0 7.101717244451247 7.276208734813002
    vertex 60.0 7.101717244451247 5.723791265187
    vertex 60.0 7.180035175591977 5.474183608782151
  endloop
endfacet
facet normal 1.0 0.0 0.0
  outer loop
    vertex 60.0 7.101717244451247 7.276208734813002
    vertex 60.0 7.180035175591977 5.474183608782151
    vertex 60.0 7.180035175591976 7.525816391217852
  endloop
endfacet
facet normal 1.0 0.0 0.0
  outer loop
    vertex 60.0 7.180035175591976 7.525816391217852
    vertex 60.0 7.180035175591977 5.474183608782151
    vertex 60.0 7.279713325473503 7.767688148374988
  endloop
endfacet
facet normal 1.0 0.0 0.0
  outer loop
    vertex 60.0 7.279713325473503 7.767688148374988
    vertex 60.0 7.180035175591977 5.474183608782151
    vertex 60.0 7.279713325473503 5.232311851625013
  endloop
endfacet
facet normal 1.0 0.0 0.0
  outer loop
    vertex 60.0 7.279713325473503 7.767688148374988
    vertex 60.0 7.279713325473503 5.232311851625013
    vertex 60.0 7.400000000000003 5.000000000000001
  endloop
endfacet
facet normal 1.0 0.0 0.0
  outer loop
    vertex 60.0 7.279713325473503 7.767688148374988
    vertex 60.0 7.400000000000003 5.000000000000001
    vertex 60.0 7.4 8.0
  endloop
endfacet
facet normal -1.0 0.0 0.0
  outer loop
    vertex 3.3839597790574766e-14 7.0113589511160335 6.7613592445344715
    vertex 3.3839597790574766e-14 7.0113589511160335 6.238640755465532
    vertex 3.3839597790574766e-14 7.000000000000001 6.500000000000001
  endloop
endfacet
facet normal -1.0 0.0 0.0
  outer loop
    vertex 3.3839597790574766e-14 7.0113589511160335 6.238640755465532
    vertex 3.3839597790574766e-14 7.0113589511160335 6.7613592445344715
    vertex 3.3839597790574766e-14 7.0453501442015805 7.0207475235038705
  endloop
endfacet
facet normal -1.0 0.0 0.0
  outer loop
    vertex 3.3839597790574766e-14 7.0113589511160335 6.238640755465532
    vertex 3.3839597790574766e-14 7.0453501442015805 7.0207475235038705
    vertex 3.3839597790574766e-14 7.0453501442015805 5.979252476496133
  endloop
endfacet
facet normal -1.0 0.0 0.0
  outer loop
    vertex 3.3839597790574766e-14 7.0453501442015805 5.979252476496133
    vertex 3.3839597790574766e-14 7.0453501442015805 7.0207475235038705
    vertex 3.3839597790574766e-14 7.101717244451247 7.276208734813002
  endloop
endfacet
facet normal -1.0 0.0 0.0
  outer loop
    vertex 3.3839597790574766e-14 7.0453501442015805 5.979252476496133
    vertex 3.3839597790574766e-14 7.101717244451247 7.276208734813002
    vertex 3.3839597790574766e-14 7.101717244451247 5.723791265187
  endloop
endfacet
facet normal -1.0 0.0 0.0
  outer loop
    vertex 3.3839597790574766e-14 7.101717244451247 5.723791265187
    vertex 3.3839597790574766e-14 7.101717244451247 7.276208734813002
    vertex 3.3839597790574766e-14 7.180035175591976 7.525816391217852
  endloop
endfacet
facet normal -1.0 0.0 0.0
  outer loop
    vertex 3.3839597790574766e-14 7.101717244451247 5.723791265187
    vertex 3.3839597790574766e-14 7.180035175591976 7.525816391217852
    vertex 3.3839597790574766e-14 7.180035175591977 5.474183608782151
  endloop
endfacet
facet normal -1.0 0.0 0.0
  outer loop
    vertex 3.3839597790574766e-14 7.180035175591977 5.474183608782151
    vertex 3.3839597790574766e-14 7.180035175591976 7.525816391217852
    vertex 3.3839597790574766e-14 7.279713325473503 7.767688148374988
  endloop
endfacet
facet normal -1.0 0.0 0.0
  outer loop
    vertex 3.3839597790574766e-14 7.180035175591977 5.474183608782151
    vertex 3.3839597790574766e-14 7.279713325473503 7.767688148374988
    vertex 3.3839597790574766e-14 7.279713325473503 5.232311851625013
  endloop
endfacet
facet normal -1.0 0.0 0.0
  outer loop
    vertex 3.3839597790574766e-14 7.279713325473503 5.232311851625013
    vertex 3.3839597790574766e-14 7.279713325473503 7.767688148374988
    vertex 3.3839597790574766e-14 7.4 8.0
  endloop
endfacet
facet normal -1.0 0.0 0.0
  outer loop
    vertex 3.3839597790574766e-14 7.279713325473503 5.232311851625013
    vertex 3.3839597790574766e-14 7.4 8.0
    vertex 3.3839597790574766e-14 7.400000000000003 5.000000000000001
  endloop
endfacet
facet normal 0.0 -0.888022000522499 -0.4598009641007931
  outer loop
    vertex 60.0 7.279713325473503 5.232311851625013
    vertex 3.3839597790574766e-14 7.400000000000003 5.000000000000001
    vertex 60.0 7.400000000000003 5.000000000000001
  endloop
endfacet
facet normal 0.0 -0.888022000522499 -0.4598009641007931
  outer loop
    vertex 3.3839597790574766e-14 7.400000000000003 5.000000000000001
    vertex 60.0 7.279713325473503 5.232311851625013
    vertex 3.3839597790574766e-14 7.279713325473503 5.232311851625013
  endloop
endfacet
facet normal 0.0 1.0 9.399888275159659e-16
  outer loop
    vertex 3.3839597790574766e-14 7.4 8.0
    vertex 60.0 7.400000000000003 5.000000000000001
    vertex 3.3839597790574766e-14 7.400000000000003 5.000000000000001
  endloop
endfacet
facet normal 0.0 1.0 9.399888275159659e-16
  outer loop
    vertex 60.0 7.400000000000003 5.000000000000001
    vertex 3.3839597790574766e-14 7.4 8.0
    vertex 60.0 7.4 8.0
  endloop
endfacet
facet normal 0.0 -0.8880220005225034 0.4598009641007845
  outer loop
    vertex 60.0 7.4 8.0
    vertex 3.3839597790574766e-14 7.279713325473503 7.767688148374988
    vertex 60.0 7.279713325473503 7.767688148374988
  endloop
endfacet
facet normal 0.0 -0.8880220005225034 0.4598009641007845
  outer loop
    vertex 3.3839597790574766e-14 7.279713325473503 7.767688148374988
    vertex 60.0 7.4 8.0
    vertex 3.3839597790574766e-14 7.4 8.0
  endloop
endfacet
facet normal 0.0 -0.9245651487780058 0.3810239961801671
  outer loop
    vertex 60.0 7.279713325473503 7.767688148374988
    vertex 3.3839597790574766e-14 7.180035175591976 7.525816391217852
    vertex 60.0 7.180035175591976 7.525816391217852
  endloop
endfacet
facet normal 0.0 -0.9245651487780058 0.3810239961801671
  outer loop
    vertex 3.3839597790574766e-14 7.180035175591976 7.525816391217852
    vertex 60.0 7.279713325473503 7.767688148374988
    vertex 3.3839597790574766e-14 7.279713325473503 7.767688148374988
  endloop
endfacet
facet normal 0.0 -0.9541359549066704 0.29937364539039935
  outer loop
    vertex 60.0 7.180035175591976 7.525816391217852
    vertex 3.3839597790574766e-14 7.101717244451247 7.276208734813002
    vertex 60.0 7.101717244451247 7.276208734813002
  endloop
endfacet
facet normal 0.0 -0.9541359549066704 0.29937364539039935
  outer loop
    vertex 3.3839597790574766e-14 7.101717244451247 7.276208734813002
    vertex 60.0 7.180035175591976 7.525816391217852
    vertex 3.3839597790574766e-14 7.180035175591976 7.525816391217852
  endloop
endfacet
facet normal 0.0 -0.9765114191798423 0.215465654366004
  outer loop
    vertex 60.0 7.101717244451247 7.276208734813002
    vertex 3.3839597790574766e-14 7.0453501442015805 7.0207475235038705
    vertex 60.0 7.0453501442015805 7.0207475235038705
  endloop
endfacet
facet normal 0.0 -0.9765114191798423 0.215465654366004
  outer loop
    vertex 3.3839597790574766e-14 7.0453501442015805 7.0207475235038705
    vertex 60.0 7.101717244451247 7.276208734813002
    vertex 3.3839597790574766e-14 7.101717244451247 7.276208734813002
  endloop
endfacet
facet normal 0.0 -0.9915228034698066 0.12993279108591227
  outer loop
    vertex 60.0 7.0453501442015805 7.0207475235038705
    vertex 3.3839597790574766e-14 7.0113589511160335 6.7613592445344715
    vertex 60.0 7.0113589511160335 6.7613592445344715
  endloop
endfacet
facet normal 0.0 -0.9915228034698066 0.12993279108591227
  outer loop
    vertex 3.3839597790574766e-14 7.0113589511160335 6.7613592445344715
    vertex 60.0 7.0453501442015805 7.0207475235038705
    vertex 3.3839597790574766e-14 7.0453501442015805 7.0207475235038705
  endloop
endfacet
facet normal 0.0 -0.999056903739823 0.04342007703583752
  outer loop
    vertex 60.0 7.0113589511160335 6.7613592445344715
    vertex 3.3839597790574766e-14 7.000000000000001 6.500000000000001
    vertex 60.0 7.000000000000001 6.500000000000001
  endloop
endfacet
facet normal 0.0 -0.999056903739823 0.04342007703583752
  outer loop
    vertex 3.3839597790574766e-14 7.000000000000001 6.500000000000001
    vertex 60.0 7.0113589511160335 6.7613592445344715
    vertex 3.3839597790574766e-14 7.0113589511160335 6.7613592445344715
  endloop
endfacet
facet normal -0.0 -0.9990569037398229 -0.04342007703583775
  outer loop
    vertex 60.0 7.000000000000001 6.500000000000001
    vertex 3.3839597790574766e-14 7.0113589511160335 6.238640755465532
    vertex 60.0 7.0113589511160335 6.238640755465532
  endloop
endfacet
facet normal -0.0 -0.9990569037398229 -0.04342007703583775
  outer loop
    vertex 3.3839597790574766e-14 7.0113589511160335 6.238640755465532
    vertex 60.0 7.000000000000001 6.500000000000001
    vertex 3.3839597790574766e-14 7.000000000000001 6.500000000000001
  endloop
endfacet
facet normal -0.0 -0.9915228034698066 -0.12993279108591227
  outer loop
    vertex 60.0 7.0113589511160335 6.238640755465532
    vertex 3.3839597790574766e-14 7.0453501442015805 5.979252476496133
    vertex 60.0 7.0453501442015805 5.979252476496133
  endloop
endfacet
facet normal -0.0 -0.9915228034698066 -0.12993279108591227
  outer loop
    vertex 3.3839597790574766e-14 7.0453501442015805 5.979252476496133
    vertex 60.0 7.0113589511160335 6.238640755465532
    vertex 3.3839597790574766e-14 7.0113589511160335 6.238640755465532
  endloop
endfacet
facet normal -0.0 -0.9765114191798425 -0.21546565436600346
  outer loop
    vertex 60.0 7.0453501442015805 5.979252476496133
    vertex 3.3839597790574766e-14 7.101717244451247 5.723791265187
    vertex 60.0 7.101717244451247 5.723791265187
  endloop
endfacet
facet normal -0.0 -0.9765114191798425 -0.21546565436600346
  outer loop
    vertex 3.3839597790574766e-14 7.101717244451247 5.723791265187
    vertex 60.0 7.0453501442015805 5.979252476496133
    vertex 3.3839597790574766e-14 7.0453501442015805 5.979252476496133
  endloop
endfacet
facet normal -0.0 -0.9541359549066688 -0.2993736453904043
  outer loop
    vertex 60.0 7.101717244451247 5.723791265187
    vertex 3.3839597790574766e-14 7.180035175591977 5.474183608782151
    vertex 60.0 7.180035175591977 5.474183608782151
  endloop
endfacet
facet normal -0.0 -0.9541359549066688 -0.2993736453904043
  outer loop
    vertex 3.3839597790574766e-14 7.180035175591977 5.474183608782151
    vertex 60.0 7.101717244451247 5.723791265187
    vertex 3.3839597790574766e-14 7.101717244451247 5.723791265187
  endloop
endfacet
facet normal -0.0 -0.9245651487780081 -0.38102399618016153
  outer loop
    vertex 60.0 7.180035175591977 5.474183608782151
    vertex 3.3839597790574766e-14 7.279713325473503 5.232311851625013
    vertex 60.0 7.279713325473503 5.232311851625013
  endloop
endfacet
facet normal -0.0 -0.9245651487780081 -0.38102399618016153
  outer loop
    vertex 3.3839597790574766e-14 7.279713325473503 5.232311851625013
    vertex 60.0 7.180035175591977 5.474183608782151
    vertex 3.3839597790574766e-14 7.180035175591977 5.474183608782151
  endloop
endfacet
facet normal 0.0 1.0 7.049916206369743e-17
  outer loop
    vertex 15.000000000000023 1.2 5.000000000000001
    vertex 45.0 1.2000000000000002 0.0
    vertex 15.000000000000023 1.2000000000000002 0.0
  endloop
endfacet
facet normal 0.0 1.0 7.049916206369743e-17
  outer loop
    vertex 45.0 1.2000000000000002 0.0
    vertex 15.000000000000023 1.2 5.000000000000001
    vertex 45.0 1.2 5.000000000000001
  endloop
endfacet
facet normal -1.0 9.399888275159658e-15 3.826919905085297e-32
  outer loop
    vertex 15.000000000000023 1.2000000000000002 8.0
    vertex 15.000000000000012 0.0 0.0
    vertex 15.000000000000012 0.0 8.0
  endloop
endfacet
facet normal -1.0 9.399888275159658e-15 3.826919905085297e-32
  outer loop
    vertex 15.000000000000012 0.0 0.0
    vertex 15.000000000000023 1.2000000000000002 8.0
    vertex 15.000000000000023 1.2 5.000000000000001
  endloop
endfacet
facet normal -1.0 9.399888275159658e-15 3.826919905085297e-32
  outer loop
    vertex 15.000000000000023 1.2000000000000002 0.0
    vertex 15.000000000000012 0.0 0.0
    vertex 15.000000000000023 1.2 5.000000000000001
  endloop
endfacet
facet normal 0.0 0.0 -1.0
  outer loop
    vertex 15.000000000000023 1.2000000000000002 0.0
    vertex 45.0 0.0 0.0
    vertex 15.000000000000012 0.0 0.0
  endloop
endfacet
facet normal 0.0 0.0 -1.0
  outer loop
    vertex 45.0 0.0 0.0
    vertex 15.000000000000023 1.2000000000000002 0.0
    vertex 45.0 1.2000000000000002 0.0
  endloop
endfacet
facet normal 0.0 0.0 1.0
  outer loop
    vertex 45.0 0.0 8.0
    vertex 15.000000000000023 1.2000000000000002 8.0
    vertex 15.000000000000012 0.0 8.0
  endloop
endfacet
facet normal 0.0 0.0 1.0
  outer loop
    vertex 15.000000000000023 1.2000000000000002 8.0
    vertex 45.0 0.0 8.0
    vertex 45.0 1.2000000000000002 8.0
  endloop
endfacet
facet normal -0.0 -1.0 -0.0
  outer loop
    vertex 45.0 0.0 8.0
    vertex 15.000000000000012 0.0 0.0
    vertex 45.0 0.0 0.0
  endloop
endfacet
facet normal -0.0 -1.0 -0.0
  outer loop
    vertex 15.000000000000012 0.0 0.0
    vertex 45.0 0.0 8.0
    vertex 15.000000000000012 0.0 8.0
  endloop
endfacet
facet normal 1.0 0.0 0.0
  outer loop
    vertex 45.0 1.2000000000000002 0.0
    vertex 45.0 0.0 8.0
    vertex 45.0 0.0 0.0
  endloop
endfacet
facet normal 1.0 0.0 0.0
  outer loop
    vertex 45.0 0.0 8.0
    vertex 45.0 1.2000000000000002 0.0
    vertex 45.0 1.2 5.000000000000001
  endloop
endfacet
facet normal 1.0 0.0 0.0
  outer loop
    vertex 45.0 1.2000000000000002 8.0
    vertex 45.0 0.0 8.0
    vertex 45.0 1.2 5.000000000000001
  endloop
endfacet
facet normal -1.0 0.0 0.0
  outer loop
    vertex 15.000000000000023 1.2000000000000002 8.0
    vertex 15.000000000000023 1.320286674526498 5.232311851625013
    vertex 15.000000000000023 1.2 5.000000000000001
  endloop
endfacet
facet normal -1.0 0.0 0.0
  outer loop
    vertex 15.000000000000023 1.320286674526498 5.232311851625013
    vertex 15.000000000000023 1.2000000000000002 8.0
    vertex 15.000000000000023 1.320286674526498 7.767688148374988
  endloop
endfacet
facet normal -1.0 0.0 0.0
  outer loop
    vertex 15.000000000000023 1.320286674526498 5.232311851625013
    vertex 15.000000000000023 1.320286674526498 7.767688148374988
    vertex 15.000000000000023 1.4199648244080256 7.525816391217852
  endloop
endfacet
facet normal -1.0 0.0 0.0
  outer loop
    vertex 15.000000000000023 1.320286674526498 5.232311851625013
    vertex 15.000000000000023 1.4199648244080256 7.525816391217852
    vertex 15.000000000000023 1.419964824408026 5.47418360878215
  endloop
endfacet
facet normal -1.0 0.0 0.0
  outer loop
    vertex 15.000000000000023 1.419964824408026 5.47418360878215
    vertex 15.000000000000023 1.4199648244080256 7.525816391217852
    vertex 15.000000000000023 1.4982827555487546 7.276208734813002
  endloop
endfacet
facet normal -1.0 0.0 0.0
  outer loop
    vertex 15.000000000000023 1.419964824408026 5.47418360878215
    vertex 15.000000000000023 1.4982827555487546 7.276208734813002
    vertex 15.000000000000023 1.498282755548755 5.723791265186999
  endloop
endfacet
facet normal -1.0 0.0 0.0
  outer loop
    vertex 15.000000000000023 1.498282755548755 5.723791265186999
    vertex 15.000000000000023 1.4982827555487546 7.276208734813002
    vertex 15.000000000000023 1.554649855798421 7.020747523503869
  endloop
endfacet
facet normal -1.0 0.0 0.0
  outer loop
    vertex 15.000000000000023 1.498282755548755 5.723791265186999
    vertex 15.000000000000023 1.554649855798421 7.020747523503869
    vertex 15.000000000000023 1.554649855798421 5.979252476496133
  endloop
endfacet
facet normal -1.0 0.0 0.0
  outer loop
    vertex 15.000000000000023 1.554649855798421 5.979252476496133
    vertex 15.000000000000023 1.554649855798421 7.020747523503869
    vertex 15.000000000000023 1.5886410488839695 6.7613592445344715
  endloop
endfacet
facet normal -1.0 0.0 0.0
  outer loop
    vertex 15.000000000000023 1.554649855798421 5.979252476496133
    vertex 15.000000000000023 1.5886410488839695 6.7613592445344715
    vertex 15.000000000000023 1.5886410488839695 6.23864075546553
  endloop
endfacet
facet normal -1.0 0.0 0.0
  outer loop
    vertex 15.000000000000023 1.5886410488839695 6.23864075546553
    vertex 15.000000000000023 1.5886410488839695 6.7613592445344715
    vertex 15.000000000000023 1.6000000000000003 6.500000000000001
  endloop
endfacet
facet normal 1.0 -1.1096008783889803e-14 -8.290309212120404e-32
  outer loop
    vertex 45.00000000000001 1.320286674526498 5.232311851625013
    vertex 45.0 1.2000000000000002 8.0
    vertex 45.0 1.2 5.000000000000001
  endloop
endfacet
facet normal 1.0 -1.1096008783889803e-14 -8.290309212120404e-32
  outer loop
    vertex 45.0 1.2000000000000002 8.0
    vertex 45.00000000000001 1.320286674526498 5.232311851625013
    vertex 45.00000000000001 1.320286674526498 7.767688148374988
  endloop
endfacet
facet normal 1.0 -1.1096008783889803e-14 -8.290309212120404e-32
  outer loop
    vertex 45.00000000000001 1.320286674526498 7.767688148374988
    vertex 45.00000000000001 1.320286674526498 5.232311851625013
    vertex 45.00000000000001 1.419964824408026 5.47418360878215
  endloop
endfacet
facet normal 1.0 -1.1096008783889803e-14 -8.290309212120404e-32
  outer loop
    vertex 45.00000000000001 1.320286674526498 7.767688148374988
    vertex 45.00000000000001 1.419964824408026 5.47418360878215
    vertex 45.00000000000001 1.4199648244080256 7.525816391217852
  endloop
endfacet
facet normal 1.0 -1.1096008783889803e-14 -8.290309212120404e-32
  outer loop
    vertex 45.00000000000001 1.4199648244080256 7.525816391217852
    vertex 45.00000000000001 1.419964824408026 5.47418360878215
    vertex 45.00000000000001 1.4982827555487546 7.276208734813002
  endloop
endfacet
facet normal 1.0 -1.1096008783889803e-14 -8.290309212120404e-32
  outer loop
    vertex 45.00000000000001 1.4982827555487546 7.276208734813002
    vertex 45.00000000000001 1.419964824408026 5.47418360878215
    vertex 45.00000000000001 1.498282755548755 5.723791265186999
  endloop
endfacet
facet normal 1.0 -1.1096008783889803e-14 -8.290309212120404e-32
  outer loop
    vertex 45.00000000000001 1.4982827555487546 7.276208734813002
    vertex 45.00000000000001 1.498282755548755 5.723791265186999
    vertex 45.00000000000001 1.554649855798421 7.020747523503869
  endloop
endfacet
facet normal 1.0 -1.1096008783889803e-14 -8.290309212120404e-32
  outer loop
    vertex 45.00000000000001 1.554649855798421 7.020747523503869
    vertex 45.00000000000001 1.498282755548755 5.723791265186999
    vertex 45.00000000000001 1.554649855798421 5.979252476496133
  endloop
endfacet
facet normal 1.0 -1.1096008783889803e-14 -8.290309212120404e-32
  outer loop
    vertex 45.00000000000001 1.554649855798421 7.020747523503869
    vertex 45.00000000000001 1.554649855798421 5.979252476496133
    vertex 45.00000000000001 1.5886410488839695 6.23864075546553
  endloop
endfacet
facet normal 1.0 -1.1096008783889803e-14 -8.290309212120404e-32
  outer loop
    vertex 45.00000000000001 1.554649855798421 7.020747523503869
    vertex 45.00000000000001 1.5886410488839695 6.23864075546553
    vertex 45.00000000000001 1.5886410488839695 6.7613592445344715
  endloop
endfacet
facet normal 1.0 -1.1096008783889803e-14 -8.290309212120404e-32
  outer loop
    vertex 45.00000000000001 1.5886410488839695 6.7613592445344715
    vertex 45.00000000000001 1.5886410488839695 6.23864075546553
    vertex 45.00000000000001 1.6000000000000003 6.500000000000001
  endloop
endfacet
facet normal 0.0 0.9990569037398234 0.043420077035832144
  outer loop
    vertex 15.000000000000023 1.5886410488839695 6.7613592445344715
    vertex 45.00000000000001 1.6000000000000003 6.500000000000001
    vertex 15.000000000000023 1.6000000000000003 6.500000000000001
  endloop
endfacet
facet normal 0.0 0.9990569037398234 0.043420077035832144
  outer loop
    vertex 45.00000000000001 1.6000000000000003 6.500000000000001
    vertex 15.000000000000023 1.5886410488839695 6.7613592445344715
    vertex 45.00000000000001 1.5886410488839695 6.7613592445344715
  endloop
endfacet
facet normal 0.0 0.9990569037398234 -0.043420077035832144
  outer loop
    vertex 15.000000000000023 1.6000000000000003 6.500000000000001
    vertex 45.00000000000001 1.5886410488839695 6.23864075546553
    vertex 15.000000000000023 1.5886410488839695 6.23864075546553
  endloop
endfacet
facet normal 0.0 0.9990569037398234 -0.043420077035832144
  outer loop
    vertex 45.00000000000001 1.5886410488839695 6.23864075546553
    vertex 15.000000000000023 1.6000000000000003 6.500000000000001
    vertex 45.00000000000001 1.6000000000000003 6.500000000000001
  endloop
endfacet
facet normal 0.0 0.9915228034698058 -0.12993279108591826
  outer loop
    vertex 15.000000000000023 1.5886410488839695 6.23864075546553
    vertex 45.00000000000001 1.554649855798421 5.979252476496133
    vertex 15.000000000000023 1.554649855798421 5.979252476496133
  endloop
endfacet
facet normal 0.0 0.9915228034698058 -0.12993279108591826
  outer loop
    vertex 45.00000000000001 1.554649855798421 5.979252476496133
    vertex 15.000000000000023 1.5886410488839695 6.23864075546553
    vertex 45.00000000000001 1.5886410488839695 6.23864075546553
  endloop
endfacet
facet normal 0.0 0.9765114191798429 -0.2154656543660016
  outer loop
    vertex 15.000000000000023 1.554649855798421 5.979252476496133
    vertex 45.00000000000001 1.498282755548755 5.723791265186999
    vertex 15.000000000000023 1.498282755548755 5.723791265186999
  endloop
endfacet
facet normal 0.0 0.9765114191798429 -0.2154656543660016
  outer loop
    vertex 45.00000000000001 1.498282755548755 5.723791265186999
    vertex 15.000000000000023 1.554649855798421 5.979252476496133
    vertex 45.00000000000001 1.554649855798421 5.979252476496133
  endloop
endfacet
facet normal 0.0 0.9541359549066699 -0.29937364539040057
  outer loop
    vertex 15.000000000000023 1.498282755548755 5.723791265186999
    vertex 45.00000000000001 1.419964824408026 5.47418360878215
    vertex 15.000000000000023 1.419964824408026 5.47418360878215
  endloop
endfacet
facet normal 0.0 0.9541359549066699 -0.29937364539040057
  outer loop
    vertex 45.00000000000001 1.419964824408026 5.47418360878215
    vertex 15.000000000000023 1.498282755548755 5.723791265186999
    vertex 45.00000000000001 1.498282755548755 5.723791265186999
  endloop
endfacet
facet normal 0.0 0.9245651487780058 -0.3810239961801671
  outer loop
    vertex 15.000000000000023 1.419964824408026 5.47418360878215
    vertex 45.00000000000001 1.320286674526498 5.232311851625013
    vertex 15.000000000000023 1.320286674526498 5.232311851625013
  endloop
endfacet
facet normal 0.0 0.9245651487780058 -0.3810239961801671
  outer loop
    vertex 45.00000000000001 1.320286674526498 5.232311851625013
    vertex 15.000000000000023 1.419964824408026 5.47418360878215
    vertex 45.00000000000001 1.419964824408026 5.47418360878215
  endloop
endfacet
facet normal 9.817622284884456e-21 0.8880220005225018 -0.45980096410078786
  outer loop
    vertex 15.000000000000023 1.320286674526498 5.232311851625013
    vertex 45.0 1.2 5.000000000000001
    vertex 15.000000000000023 1.2 5.000000000000001
  endloop
endfacet
facet normal 9.817622284884456e-21 0.8880220005225018 -0.45980096410078786
  outer loop
    vertex 45.0 1.2 5.000000000000001
    vertex 15.000000000000023 1.320286674526498 5.232311851625013
    vertex 45.00000000000001 1.320286674526498 5.232311851625013
  endloop
endfacet
facet normal 0.0 -1.0 1.174986034394957e-16
  outer loop
    vertex 45.0 1.2000000000000002 8.0
    vertex 15.000000000000023 1.2 5.000000000000001
    vertex 45.0 1.2 5.000000000000001
  endloop
endfacet
facet normal 0.0 -1.0 1.174986034394957e-16
  outer loop
    vertex 15.000000000000023 1.2 5.000000000000001
    vertex 45.0 1.2000000000000002 8.0
    vertex 15.000000000000023 1.2000000000000002 8.0
  endloop
endfacet
facet normal 9.817622284883656e-21 0.8880220005225024 0.45980096410078686
  outer loop
    vertex 15.000000000000023 1.2000000000000002 8.0
    vertex 45.00000000000001 1.320286674526498 7.767688148374988
    vertex 15.000000000000023 1.320286674526498 7.767688148374988
  endloop
endfacet
facet normal 9.817622284883656e-21 0.8880220005225024 0.45980096410078686
  outer loop
    vertex 45.00000000000001 1.320286674526498 7.767688148374988
    vertex 15.000000000000023 1.2000000000000002 8.0
    vertex 45.0 1.2000000000000002 8.0
  endloop
endfacet
facet normal 0.0 0.9245651487780063 0.38102399618016597
  outer loop
    vertex 15.000000000000023 1.320286674526498 7.767688148374988
    vertex 45.00000000000001 1.4199648244080256 7.525816391217852
    vertex 15.000000000000023 1.4199648244080256 7.525816391217852
  endloop
endfacet
facet normal 0.0 0.9245651487780063 0.38102399618016597
  outer loop
    vertex 45.00000000000001 1.4199648244080256 7.525816391217852
    vertex 15.000000000000023 1.320286674526498 7.767688148374988
    vertex 45.00000000000001 1.320286674526498 7.767688148374988
  endloop
endfacet
facet normal 0.0 0.9541359549066699 0.29937364539040057
  outer loop
    vertex 15.000000000000023 1.4199648244080256 7.525816391217852
    vertex 45.00000000000001 1.4982827555487546 7.276208734813002
    vertex 15.000000000000023 1.4982827555487546 7.276208734813002
  endloop
endfacet
facet normal 0.0 0.9541359549066699 0.29937364539040057
  outer loop
    vertex 45.00000000000001 1.4982827555487546 7.276208734813002
    vertex 15.000000000000023 1.4199648244080256 7.525816391217852
    vertex 45.00000000000001 1.4199648244080256 7.525816391217852
  endloop
endfacet
facet normal 0.0 0.9765114191798426 0.21546565436600287
  outer loop
    vertex 15.000000000000023 1.4982827555487546 7.276208734813002
    vertex 45.00000000000001 1.554649855798421 7.020747523503869
    vertex 15.000000000000023 1.554649855798421 7.020747523503869
  endloop
endfacet
facet normal 0.0 0.9765114191798426 0.21546565436600287
  outer loop
    vertex 45.00000000000001 1.554649855798421 7.020747523503869
    vertex 15.000000000000023 1.4982827555487546 7.276208734813002
    vertex 45.00000000000001 1.4982827555487546 7.276208734813002
  endloop
endfacet
facet normal 0.0 0.9915228034698058 0.12993279108591826
  outer loop
    vertex 15.000000000000023 1.554649855798421 7.020747523503869
    vertex 45.00000000000001 1.5886410488839695 6.7613592445344715
    vertex 15.000000000000023 1.5886410488839695 6.7613592445344715
  endloop
endfacet
facet normal 0.0 0.9915228034698058 0.12993279108591826
  outer loop
    vertex 45.00000000000001 1.5886410488839695 6.7613592445344715
    vertex 15.000000000000023 1.554649855798421 7.020747523503869
    vertex 45.00000000000001 1.554649855798421 7.020747523503869
  endloop
endfacet
endsolid LED_mount
